<svg xmlns="http://www.w3.org/2000/svg" viewBox="0 0 480 80"><g stroke="#e11d48" stroke-width="1.5"><path d="M1.5 16.51v46.98"/><path d="M4.5 25.26v29.48"/><path d="M7.5 28.23v23.53"/><path d="M10.5 34.93v10.13"/><path d="M13.5 34.81v10.37"/><path d="M16.5 29.64v20.72"/><path d="M19.5 32.47v15.06"/><path d="M22.5 38.17v3.65"/><path d="M25.5 36.70v6.59"/><path d="M28.5 21.12v37.76"/><path d="M31.5 19.93v40.15"/><path d="M34.5 26.26v27.49"/><path d="M37.5 28.86v22.28"/><path d="M40.5 27.25v25.50"/><path d="M43.5 26.63v26.74"/><path d="M46.5 24.88v30.23"/><path d="M49.5 22.26v35.48"/><path d="M52.5 15.97v48.06"/><path d="M55.5 18.07v43.86"/><path d="M58.5 24.33v31.33"/><path d="M61.5 28.94v22.13"/><path d="M64.5 32.25v15.50"/><path d="M67.5 36.78v6.44"/><path d="M70.5 37.71v4.58"/><path d="M73.5 30.72v18.56"/><path d="M76.5 29.62v20.76"/><path d="M79.5 34.53v10.93"/><path d="M82.5 34.71v10.57"/><path d="M85.5 24.16v31.68"/><path d="M88.5 23.27v33.45"/><path d="M91.5 28.67v22.67"/><path d="M94.5 36.13v7.74"/><path d="M97.5 37.80v4.40"/><path d="M100.5 20.23v39.53"/><path d="M103.5 24.53v30.93"/><path d="M106.5 30.55v18.89"/><path d="M109.5 31.46v17.08"/><path d="M112.5 24.07v31.87"/><path d="M115.5 20.02v39.96"/><path d="M118.5 22.47v35.05"/><path d="M121.5 30.17v19.66"/><path d="M124.5 34.88v10.25"/><path d="M127.5 33.89v12.22"/><path d="M130.5 32.21v15.58"/><path d="M133.5 35.88v8.24"/><path d="M136.5 37.47v5.07"/><path d="M139.5 38.59v2.81"/><path d="M142.5 15.76v48.48"/><path d="M145.5 16.89v46.23"/><path d="M148.5 22.64v34.71"/><path d="M151.5 28.15v23.70"/><path d="M154.5 29.54v20.92"/><path d="M157.5 30.32v19.36"/><path d="M160.5 32.09v15.83"/><path d="M163.5 24.50v31.01"/><path d="M166.5 23.88v32.25"/><path d="M169.5 23.98v32.05"/><path d="M172.5 16.60v46.79"/><path d="M175.5 27.69v24.63"/><path d="M178.5 30.00v20.00"/><path d="M181.5 34.69v10.63"/><path d="M184.5 38.18v3.63"/><path d="M187.5 33.10v13.81"/><path d="M190.5 28.91v22.19"/><path d="M193.5 31.71v16.58"/><path d="M196.5 34.79v10.43"/><path d="M199.5 36.45v7.09"/><path d="M202.5 31.21v17.58"/><path d="M205.5 33.48v13.05"/><path d="M208.5 35.18v9.63"/><path d="M211.5 38.61v2.78"/><path d="M214.5 34.24v11.52"/><path d="M217.5 26.34v27.31"/><path d="M220.5 24.48v31.04"/><path d="M223.5 27.05v25.90"/><path d="M226.5 28.68v22.64"/><path d="M229.5 27.81v24.39"/><path d="M232.5 22.85v34.31"/><path d="M235.5 28.43v23.13"/><path d="M238.5 30.67v18.66"/><path d="M241.5 34.14v11.72"/><path d="M244.5 36.95v6.10"/><path d="M247.5 33.60v12.81"/><path d="M250.5 33.69v12.61"/><path d="M253.5 34.58v10.84"/><path d="M256.5 34.97v10.06"/><path d="M259.5 30.97v18.07"/><path d="M262.5 32.35v15.31"/><path d="M265.5 34.21v11.58"/><path d="M268.5 35.69v8.62"/><path d="M271.5 36.11v7.77"/><path d="M274.5 35.60v8.81"/><path d="M277.5 28.95v22.10"/><path d="M280.5 30.25v19.50"/><path d="M283.5 31.98v16.05"/><path d="M286.5 31.04v17.93"/><path d="M289.5 31.54v16.91"/><path d="M292.5 31.83v16.35"/><path d="M295.5 30.74v18.51"/><path d="M298.5 29.20v21.60"/><path d="M301.5 36.49v7.01"/><path d="M304.5 34.39v11.22"/><path d="M307.5 28.95v22.09"/><path d="M310.5 32.24v15.52"/><path d="M313.5 34.54v10.93"/><path d="M316.5 33.40v13.20"/><path d="M319.5 21.66v36.69"/><path d="M322.5 21.95v36.10"/><path d="M325.5 25.65v28.71"/><path d="M328.5 34.32v11.36"/><path d="M331.5 35.72v8.56"/><path d="M334.5 23.10v33.80"/><path d="M337.5 29.31v21.38"/><path d="M340.5 33.93v12.13"/><path d="M343.5 32.16v15.69"/><path d="M346.5 20.26v39.47"/><path d="M349.5 19.50v40.99"/><path d="M352.5 25.73v28.55"/><path d="M355.5 31.19v17.61"/><path d="M358.5 26.39v27.21"/><path d="M361.5 26.70v26.61"/><path d="M364.5 20.95v38.11"/><path d="M367.5 26.83v26.33"/><path d="M370.5 31.88v16.24"/><path d="M373.5 24.50v31.00"/><path d="M376.5 16.65v46.69"/><path d="M379.5 18.82v42.35"/><path d="M382.5 22.57v34.86"/><path d="M385.5 30.15v19.70"/><path d="M388.5 25.51v28.99"/><path d="M391.5 27.00v26.00"/><path d="M394.5 26.43v27.14"/><path d="M397.5 23.11v33.77"/><path d="M400.5 23.83v32.34"/><path d="M403.5 18.93v42.13"/><path d="M406.5 17.31v45.38"/><path d="M409.5 26.24v27.51"/><path d="M412.5 29.87v20.26"/><path d="M415.5 32.77v14.46"/><path d="M418.5 29.42v21.17"/><path d="M421.5 24.76v30.47"/><path d="M424.5 26.37v27.26"/><path d="M427.5 25.04v29.92"/><path d="M430.5 29.72v20.56"/><path d="M433.5 29.11v21.78"/><path d="M436.5 22.05v35.90"/><path d="M439.5 25.80v28.39"/><path d="M442.5 31.03v17.94"/><path d="M445.5 32.24v15.52"/><path d="M448.5 6.00v68.00"/><path d="M451.5 25.35v29.29"/><path d="M454.5 22.80v34.40"/><path d="M457.5 23.99v32.01"/><path d="M460.5 20.47v39.06"/><path d="M463.5 22.68v34.64"/><path d="M466.5 23.78v32.45"/><path d="M469.5 27.32v25.36"/><path d="M472.5 27.49v25.03"/><path d="M475.5 20.85v38.30"/><path d="M478.5 23.66v32.69"/></g></svg>
